<svg xmlns="http://www.w3.org/2000/svg" baseProfile="full" width="610.667" height="610.667" viewBox="0 0 610.67 610.67"><path fill="#666" d="M406.432 0H204.235c-25.063 0-45.568 20.508-45.568 45.573v519.522c0 25.066 20.505 45.572 45.568 45.572h202.197c25.063 0 45.568-20.506 45.568-45.572V45.573C452 20.508 431.495 0 406.432 0z"/><path fill="#333" d="M406.432 6.667H204.235c-21.45 0-38.902 17.453-38.902 38.906v519.522c0 21.452 17.45 38.905 38.902 38.905h202.197c21.45 0 38.9-17.453 38.9-38.905V45.573c0-21.453-17.45-38.906-38.9-38.906z"/><path fill="#FFF" d="M286.895 36.888h41.333c1.467 0 2.667 1.2 2.667 2.667 0 1.466-1.2 2.666-2.667 2.666h-41.333c-1.467 0-2.667-1.2-2.667-2.665 0-1.467 1.2-2.667 2.667-2.667zM259 34.22c2.946 0 5.334 2.39 5.334 5.335s-2.388 5.333-5.334 5.333c-2.945 0-5.333-2.388-5.333-5.333 0-2.946 2.388-5.334 5.333-5.334zM305.334 594.992c-13.724 0-24.89-11.165-24.89-24.89 0-13.723 11.166-24.89 24.89-24.89 13.722 0 24.89 11.167 24.89 24.89 0 13.725-11.168 24.89-24.89 24.89zM176 75.11h258.666V533.78H176z"/><path fill="#333" d="M305.334 592.325c-12.254 0-22.223-9.97-22.223-22.222 0-12.254 9.97-22.223 22.224-22.223s22.222 9.97 22.222 22.223c0 12.253-9.968 22.222-22.222 22.222z"/></svg>